# xmcd
#
# Track frame offsets:
#	150
#	12808
#	25082
#	36499
#	49539
#	61937
#	75553
#	89328
#	100071
#	114331
#	118286
#	131272
#	141580
#	151933
#	164381
#
# Disc length: 2351 seconds
#
# Revision: 1
# Processed by: cddbd v1.5.2PL0 Copyright (c) Steve Scherf et al.
# Submitted via: CDmax 2.0
#
DISCID=bb092d0f
DTITLE=Various Artist - Simply Country - Country Nights
DYEAR=2008
DGENRE=Country
TTITLE0=Honky Tonkin' - Hank Williams
TTITLE1=The Wild Side of Life - Hank Thompson and His Brazos Valley Boys
TTITLE2=It Wasn't God Who Made Honky Tonk Angels - Kitty Wells
TTITLE3=Let The Jukebox Keep On Playing - Carl Perkins
TTITLE4=The Cheatin' Kind - Billie Jo Spears
TTITLE5=Divorce Me C.O.D. - Merle Travis
TTITLE6=Black Street Affair - Webb Pierce
TTITLE7=Honky Tonk Merry Go Round - Patsy Cline
TTITLE8=What Made Milwaukee Famous - Jerry Lee Lewis
TTITLE9=Walking After Midnight - Loretta Lynn
TTITLE10=Slippin' Around - Ernest Tubb
TTITLE11=Six Days On the Road - Dave Dudley
TTITLE12=Give Me More, More, More (of Your Kisses) - Lefty Frizzell
TTITLE13=It's Four In the Moring - Faron Young
TTITLE14=Night Life - Willie Nelson
EXTD=
EXTT0=
EXTT1=
EXTT2=
EXTT3=
EXTT4=
EXTT5=
EXTT6=
EXTT7=
EXTT8=
EXTT9=
EXTT10=
EXTT11=
EXTT12=
EXTT13=
EXTT14=
PLAYORDER=
